<?xml version="1.0" encoding="utf-8"?>
<!-- Generator: Adobe Illustrator 25.4.1, SVG Export Plug-In . SVG Version: 6.00 Build 0)  -->
<svg version="1.1" id="Layer_1" xmlns="http://www.w3.org/2000/svg" xmlns:xlink="http://www.w3.org/1999/xlink" x="0px" y="0px"
	 viewBox="0 0 600 600" style="enable-background:new 0 0 600 600;" xml:space="preserve">
<style type="text/css">
	.st0{fill:#FFFFFF;}
</style>
<rect x="0.5" y="0" class="st0" width="599.5" height="599.5"/>
<path d="M563.1,265.2c-43.5,0-85.2-17.3-116-48.1c-30.8-30.8-48.1-72.5-48.1-116h-28.5c0,23.3-5,46-14.4,66.9
	c-20.8-23.9-43.1-44-65.8-59C246,79.7,205,73.1,175,90.4c-16,9.3-27.7,24.7-34.6,45.1c-21.4,1.4-39.2,8.7-52.2,21.7
	C63.7,181.7,59.5,223,76.3,273.4c16.2,48.6,50.3,100.7,96,146.4s97.7,79.8,146.4,96c17.9,6.4,36.8,9.8,55.8,10.2
	c25.4,0,45.7-7.4,60.3-22l0.9-0.9l-0.2-0.2c19.5-20.6,28.7-54.1,26.1-97c-1.3-21.1-5.3-43.5-11.9-66.5c30.5-29.1,71-45.5,113.3-45.6
	V265.2z M182.1,103c25-14.4,60.6-8,100.1,18.1c23.1,15.3,45.8,36.1,66.8,61.1c-7,12.3-15.6,23.7-25.7,34
	c-38.5-33-79.8-57.7-119-70.7c-15.7-5.4-32-8.7-48.6-9.8C161.5,120.8,170.4,109.7,182.1,103z M182.6,409.5
	c-44.1-44.1-77-94.1-92.6-140.7c-15-44.9-12-80.9,8.4-101.3c9.5-9.5,22.4-15.2,38-17.1c-3.2,16.2-4.2,32.7-3,49.1
	c3.1,51.2,22.6,110.3,54.9,166.3c31,53.7,70.3,98.5,111.2,127C260.1,475.1,219.3,446.2,182.6,409.5z M412.9,502.4
	c-25,14.4-60.6,8-100.1-18.1c-40.9-27.1-80.8-71.8-112-125.8c-31.2-54.1-50-110.9-53-159.9c-1.3-16.4-0.1-32.9,3.5-49
	c16.5,0.7,32.8,3.8,48.4,9.3c37.1,12.3,76.3,35.7,112.9,66.9c-29.6,25.2-67.2,39.3-106.4,39.3v14.3v14.3
	c43.5,0.1,85.2,17.4,116,48.2c30.8,30.8,48.1,72.5,48.2,116H399c0.1-39,14-76.6,39.1-106.1c4.9,19,8,37.4,9,54.9
	C450.2,454,437.9,488,412.9,502.4z"/>
</svg>
