<svg width="181" height="32" viewBox="0 0 181 32" fill="none" xmlns="http://www.w3.org/2000/svg">
<path fill-rule="evenodd" clip-rule="evenodd" d="M36.7285 16.5689C38.3804 19.43 37.4001 23.0885 34.539 24.7403L27.3657 28.8818C24.5046 30.5337 20.8461 29.5534 19.1943 26.6923C17.5424 23.8312 18.5227 20.1727 21.3838 18.5208L28.5571 14.3793C31.4182 12.7275 35.0766 13.7078 36.7285 16.5689Z" fill="#49CC68"/>
<path fill-rule="evenodd" clip-rule="evenodd" d="M28.8906 2.99196C30.5425 5.85306 29.5622 9.51155 26.7011 11.1634L9.96118 20.8282C7.10007 22.4801 3.44159 21.4998 1.78973 18.6387C0.137868 15.7776 1.11816 12.1191 3.97926 10.4672L20.7192 0.802424C23.5803 -0.849437 27.2388 0.130851 28.8906 2.99196Z" fill="#49CC68"/>
</svg>
